HIERARCHY
ROOT Pelvis
{
	OFFSET 0.000000 0.000000 0.000000
	CHANNELS 6 Xposition Yposition Zposition Xrotation Yrotation Zrotation
	JOINT LeftUpLeg_virtual
	{
		OFFSET 0.000000 0.000000 0.000000
		CHANNELS 3 Xrotation Yrotation Zrotation
		JOINT LeftUpLeg
		{
			OFFSET 18.735201 -5.666702 -4.541200
			CHANNELS 3 Xrotation Yrotation Zrotation
			JOINT LeftLeg
			{
				OFFSET -0.021200 -31.938179 0.493100
				CHANNELS 3 Xrotation Yrotation Zrotation
				JOINT LeftFoot
				{
					OFFSET 0.021200 -31.938179 -4.336299
					CHANNELS 3 Xrotation Yrotation Zrotation
					JOINT LeftToeBase
					{
						OFFSET 0.943001 -26.722000 15.023500
						CHANNELS 3 Xrotation Yrotation Zrotation
						End Site
						{
							OFFSET 0 0 0
						}
					}
				}
			}
		}
	}
	JOINT RightUpLeg_virtual
	{
		OFFSET 0.000000 0.000000 0.000000
		CHANNELS 3 Xrotation Yrotation Zrotation
		JOINT RightUpLeg
		{
			OFFSET -18.735201 -5.666702 -4.541200
			CHANNELS 3 Xrotation Yrotation Zrotation
			JOINT RightLeg
			{
				OFFSET 0.018946 -31.938133 0.493100
				CHANNELS 3 Xrotation Yrotation Zrotation
				JOINT RightFoot
				{
					OFFSET -0.018946 -31.938126 -4.336299
					CHANNELS 3 Xrotation Yrotation Zrotation
					JOINT RightToeBase
					{
						OFFSET -0.943001 -26.722004 15.023500
						CHANNELS 3 Xrotation Yrotation Zrotation
						End Site
						{
							OFFSET 0 0 0
						}
					}
				}
			}
		}
	}
	JOINT Hips_virtual
	{
		OFFSET 0.000000 0.000000 0.000000
		CHANNELS 3 Xrotation Yrotation Zrotation
		JOINT Hips
		{
			OFFSET -0.000000 -0.000000 -0.000000
			CHANNELS 3 Xrotation Yrotation Zrotation
			JOINT Spine
			{
				OFFSET 0.000000 10.199997 -0.299500
				CHANNELS 3 Xrotation Yrotation Zrotation
				JOINT Spine1
				{
					OFFSET 0.000000 11.900002 -1.516600
					CHANNELS 3 Xrotation Yrotation Zrotation
					JOINT Spine2
					{
						OFFSET 0.000000 13.600006 -2.842500
						CHANNELS 3 Xrotation Yrotation Zrotation
						JOINT Neck_virtual
						{
							OFFSET 0.000000 0.000000 0.000000
							CHANNELS 3 Xrotation Yrotation Zrotation
							JOINT Neck
							{
								OFFSET 0.000000 9.624100 -2.890100
								CHANNELS 3 Xrotation Yrotation Zrotation
								JOINT Head
								{
									OFFSET 0.000000 14.068802 -1.351900
									CHANNELS 3 Xrotation Yrotation Zrotation
									End Site
									{
										OFFSET 0 0 0
									}
								}
							}
						}
						JOINT LeftShoulder_virtual
						{
							OFFSET 0.000000 0.000000 0.000000
							CHANNELS 3 Xrotation Yrotation Zrotation
							JOINT LeftShoulder
							{
								OFFSET 15.263000 10.923401 -0.547700
								CHANNELS 3 Xrotation Yrotation Zrotation
								JOINT LeftArm
								{
									OFFSET 25.438599 -2.830597 -13.032500
									CHANNELS 3 Xrotation Yrotation Zrotation
									JOINT LeftForeArm
									{
										OFFSET 29.960503 0.000000 0.000000
										CHANNELS 3 Xrotation Yrotation Zrotation
										JOINT LeftHand
										{
											OFFSET 27.849251 0.000000 0.000000
											CHANNELS 3 Xrotation Yrotation Zrotation
											End Site
											{
												OFFSET 0 0 0
											}
										}
									}
								}
							}
						}
						JOINT RightShoulder_virtual
						{
							OFFSET 0.000000 0.000000 0.000000
							CHANNELS 3 Xrotation Yrotation Zrotation
							JOINT RightShoulder
							{
								OFFSET -15.263000 10.923401 -0.547700
								CHANNELS 3 Xrotation Yrotation Zrotation
								JOINT RightArm
								{
									OFFSET -25.438599 -2.830597 -13.032500
									CHANNELS 3 Xrotation Yrotation Zrotation
									JOINT RightForeArm
									{
										OFFSET -29.960503 0.000000 0.000000
										CHANNELS 3 Xrotation Yrotation Zrotation
										JOINT RightHand
										{
											OFFSET -27.849251 0.000000 0.000000
											CHANNELS 3 Xrotation Yrotation Zrotation
											End Site
											{
												OFFSET 0 0 0
											}
										}
									}
								}
							}
						}
					}
				}
			}
		}
	}
}
MOTION
Frames: 6
Frame Time: 0.03333333
-12.946916 87.839676 1.712257 0.000000 0.000000 0.000000 99.635630 -77.770774 97.789212 -54.360308 0.454709 0.509357 40.104658 1.283521 1.129895 3.979866 -2.875675 -15.602628 0.000000 0.000000 0.000000 97.036982 -77.482950 95.451675 -46.682789 -2.560256 -21.636545 49.768214 -5.046186 1.823248 -16.716803 0.314542 11.338220 0.000000 0.000000 0.000000 98.941198 -76.989332 97.123774 -0.768167 0.061690 0.037808 8.748492 -6.308624 9.437724 6.813602 5.804947 4.260594 0.000000 0.000000 0.000000 7.448693 6.890688 4.034488 3.326559 -0.222317 1.855349 0.000000 0.000000 0.000000 5.880319 7.117995 4.886287 1.441878 -12.747337 1.361810 -22.651484 -9.764921 -90.329450 -5.412081 -39.339403 -11.608448 0.000000 0.000000 0.000000 8.035766 6.846432 3.393265 11.220658 12.328665 11.652299 -55.785437 18.651619 82.869934 9.203421 14.539547 -7.900480 0.000000 0.000000 0.000000 
-12.940782 87.846947 1.767578 0.000000 0.000000 0.000000 99.298643 -77.782467 97.457012 -54.391156 0.472455 0.509975 40.083481 1.294841 1.072131 4.036742 -2.858227 -15.618074 0.000000 0.000000 0.000000 96.758994 -77.493817 95.167450 -46.694199 -2.565785 -21.664703 49.755247 -5.026715 1.821401 -16.534233 0.330754 11.396253 0.000000 0.000000 0.000000 98.617297 -77.007166 96.789156 -0.767499 0.063732 0.036992 8.756618 -6.316954 9.406537 6.810069 5.806987 4.258567 0.000000 0.000000 0.000000 7.449210 6.885069 4.013157 3.310230 -0.213809 1.840344 0.000000 0.000000 0.000000 5.902106 7.122030 4.895928 1.439742 -12.739571 1.332775 -22.560496 -9.751269 -90.305715 -5.392630 -39.353306 -11.625188 0.000000 0.000000 0.000000 8.026084 6.841980 3.375862 11.234678 12.295627 11.669014 -55.600820 18.676237 82.924951 9.244156 14.866368 -7.997819 0.000000 0.000000 0.000000 
-12.920508 87.871689 1.828136 0.000000 0.000000 0.000000 98.537329 -77.789735 96.681997 -54.426595 0.486260 0.502304 40.049600 1.283979 0.992675 4.108303 -2.837693 -15.599189 0.000000 0.000000 0.000000 96.043388 -77.499493 94.431422 -46.653501 -2.565828 -21.704430 49.644851 -5.026971 1.808790 -16.338789 0.321962 11.505442 0.000000 0.000000 0.000000 97.899273 -77.026714 96.047971 -0.765923 0.066155 0.035853 8.788079 -6.350377 9.373961 6.794553 5.788470 4.252427 0.000000 0.000000 0.000000 7.423210 6.863410 3.978635 3.285196 -0.195909 1.815609 0.000000 0.000000 0.000000 5.920224 7.107595 4.892036 1.451044 -12.740960 1.305004 -22.385363 -9.762183 -90.250104 -5.364548 -39.526680 -11.655765 0.000000 0.000000 0.000000 8.006572 6.821977 3.351126 11.261986 12.289452 11.698036 -55.103863 18.817485 82.783511 9.351941 15.671905 -8.167918 0.000000 0.000000 0.000000 
-12.892240 87.909645 1.881771 0.000000 0.000000 0.000000 97.514577 -77.781593 95.626364 -54.445688 0.488413 0.472455 39.972944 1.246470 0.916427 4.195871 -2.814623 -15.545707 0.000000 0.000000 0.000000 95.039282 -77.497567 93.396157 -46.566591 -2.576857 -21.761835 49.473977 -5.056780 1.800145 -16.210028 0.270888 11.628991 0.000000 0.000000 0.000000 96.909777 -77.038298 95.027916 -0.765108 0.066972 0.036317 8.834259 -6.399916 9.338650 6.775029 5.750968 4.247964 0.000000 0.000000 0.000000 7.379576 6.828394 3.939056 3.257810 -0.169859 1.784374 0.000000 0.000000 0.000000 5.938370 7.076558 4.878797 1.473255 -12.751735 1.277838 -22.178128 -9.815708 -90.158231 -5.326599 -39.820508 -11.693952 0.000000 0.000000 0.000000 7.990816 6.794953 3.324386 11.303559 12.317028 11.695563 -54.452799 19.048100 82.523561 9.502375 16.673100 -8.387610 0.000000 0.000000 0.000000 
-12.850408 87.955750 1.943928 0.000000 0.000000 0.000000 96.470985 -77.759805 94.534982 -54.446682 0.488584 0.410119 39.855663 1.190731 0.856107 4.331143 -2.779750 -15.451846 0.000000 0.000000 0.000000 93.941561 -77.482007 92.252066 -46.459094 -2.597448 -21.823409 49.311381 -5.106156 1.800014 -16.145529 0.199978 11.757008 0.000000 0.000000 0.000000 95.823442 -77.031338 93.901331 -0.766067 0.065914 0.037719 8.883757 -6.458728 9.290044 6.753485 5.699548 4.248951 0.000000 0.000000 0.000000 7.334563 6.782793 3.899519 3.234049 -0.136953 1.751068 0.000000 0.000000 0.000000 5.964382 7.033266 4.858600 1.505875 -12.762915 1.244514 -21.991298 -9.944148 -90.015493 -5.276504 -40.181429 -11.730245 0.000000 0.000000 0.000000 7.979658 6.766332 3.302143 11.362327 12.377310 11.619739 -53.815884 19.328228 82.272675 9.661951 17.541556 -8.632352 0.000000 0.000000 0.000000 
-12.787301 88.000618 2.025307 0.000000 0.000000 0.000000 95.556908 -77.727915 93.559583 -54.448772 0.501900 0.318554 39.736466 1.123251 0.815713 4.520521 -2.721809 -15.312862 0.000000 0.000000 0.000000 92.937824 -77.449373 91.183497 -46.355719 -2.616864 -21.864462 49.159375 -5.160423 1.797553 -16.073691 0.147691 11.921008 0.000000 0.000000 0.000000 94.749825 -77.009112 92.780450 -0.767696 0.065105 0.038811 8.925393 -6.516029 9.222343 6.731883 5.639891 4.258709 0.000000 0.000000 0.000000 7.303035 6.733718 3.862678 3.220467 -0.100661 1.720648 0.000000 0.000000 0.000000 6.002094 6.983146 4.832298 1.544448 -12.780481 1.184481 -21.860369 -10.166203 -89.806264 -5.218034 -40.566891 -11.760892 0.000000 0.000000 0.000000 7.979039 6.742055 3.287430 11.442009 12.464705 11.452001 -53.324936 19.591115 82.126290 9.796836 18.091064 -8.891371 0.000000 0.000000 0.000000 
